<svg xmlns="http://www.w3.org/2000/svg" xmlns:xlink="http://www.w3.org/1999/xlink" viewBox="0 0 325 100"><defs><style>.cls-1{fill:#1d1d1b;}.cls-2{fill:url(#gradient);}.cls-3{fill:#ffffff;}</style><linearGradient id="gradient" x1="34.25" y1="35.3" x2="68.3" y2="69.35" gradientUnits="userSpaceOnUse"><stop offset="0" stop-color="#00b6d4"/><stop offset="1" stop-color="#28b3a3"/></linearGradient></defs><rect class="cls-3" width="325" height="100"/><path class="cls-1" d="M137.08,61.41q0,6.12-4.14,9.36T121.38,74h-20V30.81h19.51q7.41,0,11.2,3.06t3.77,8.68a9.65,9.65,0,0,1-1.51,5.36,10.41,10.41,0,0,1-4,3.64V52a9.36,9.36,0,0,1,5,3.46A10,10,0,0,1,137.08,61.41ZM126.71,43.7a4.78,4.78,0,0,0-1.63-3.89,6.57,6.57,0,0,0-4.37-1.37H110V48.81h10.55A6.54,6.54,0,0,0,125,47.34,4.66,4.66,0,0,0,126.71,43.7ZM110,55.58v10.8h11.42A6.92,6.92,0,0,0,126,64.9a5,5,0,0,0,0-7.77,6.91,6.91,0,0,0-4.59-1.55Z"/><path class="cls-1" d="M163.72,43.77h8.64V74H166.6l-1.51-4.1h-.36a11.81,11.81,0,0,1-1.3,1.65,8.46,8.46,0,0,1-1.91,1.55,11.3,11.3,0,0,1-2.62,1.15,11.74,11.74,0,0,1-3.53.47q-5.84,0-9.11-3.63T143,61.34V43.77h8.64V60.62a8,8,0,0,0,1.44,4.9,5.14,5.14,0,0,0,4.4,1.94,6,6,0,0,0,2.73-.58,6.17,6.17,0,0,0,3.13-3.45,6.11,6.11,0,0,0,.4-2.16Z"/><path class="cls-1" d="M194.32,74.73a17.12,17.12,0,0,1-6.51-1.18,14.43,14.43,0,0,1-5-3.31,14.86,14.86,0,0,1-3.21-5,18.09,18.09,0,0,1,0-12.64,15,15,0,0,1,3.21-5,14.55,14.55,0,0,1,5-3.3,17.12,17.12,0,0,1,6.51-1.19,18.37,18.37,0,0,1,4.21.43,22.41,22.41,0,0,1,3,.93,8.89,8.89,0,0,1,2.3,1.35L201.59,52a17.17,17.17,0,0,0-1.87-.94,14.84,14.84,0,0,0-2.09-.61,11.7,11.7,0,0,0-2.52-.25,7.68,7.68,0,0,0-5.72,2.31,8.79,8.79,0,0,0-2.27,6.44,8.76,8.76,0,0,0,2.27,6.43,7.65,7.65,0,0,0,5.72,2.32,11,11,0,0,0,2.56-.29,13.84,13.84,0,0,0,2.05-.65,11.85,11.85,0,0,0,1.87-.86L203.75,72a8.9,8.9,0,0,1-2.3,1.36,16,16,0,0,1-3,1A17.3,17.3,0,0,1,194.32,74.73Z"/><path class="cls-1" d="M238.6,43.77,227.51,57,239,74H228.59l-7.78-11.59-2.52,2.88V74h-8.64V30.45h8.64V56l9.87-12.24Z"/><path class="cls-1" d="M267.83,71.2A11.91,11.91,0,0,1,265,73a16.85,16.85,0,0,1-3.6,1.34,20,20,0,0,1-5,.54,17.73,17.73,0,0,1-6.8-1.23,15,15,0,0,1-5.08-3.35,14.33,14.33,0,0,1-3.2-5,17.51,17.51,0,0,1-1.12-6.37,18,18,0,0,1,1.08-6.3,15,15,0,0,1,3.06-5,14,14,0,0,1,4.76-3.31,15.27,15.27,0,0,1,6.08-1.19,15.49,15.49,0,0,1,5.94,1.08,12.13,12.13,0,0,1,4.43,3.06,13.8,13.8,0,0,1,2.77,4.75,18.47,18.47,0,0,1,1,6.16v1.51a5.1,5.1,0,0,0-.07.87H248.61a8.07,8.07,0,0,0,2.55,5.72A8.87,8.87,0,0,0,257,68a12.39,12.39,0,0,0,3.24-.4,13.2,13.2,0,0,0,2.45-.9,10.23,10.23,0,0,0,2.09-1.22ZM255,49.53a5.86,5.86,0,0,0-4,1.41,7.53,7.53,0,0,0-2.2,4.42h12.1a7,7,0,0,0-1.77-4.28A5.44,5.44,0,0,0,255,49.53Z"/><path class="cls-1" d="M277.48,43.77V34.56h8.64v9.21h7.41v6.7h-7.41V64q0,3.31,3.24,3.32a4.8,4.8,0,0,0,1.22-.15,6.22,6.22,0,0,0,1.08-.36,5.6,5.6,0,0,0,.94-.5l2.44,6A16.42,16.42,0,0,1,292,73.87a12.23,12.23,0,0,1-4.68.86c-3.51,0-6-1-7.52-3a11.88,11.88,0,0,1-2.27-7.49V50.47h-5.26v-6.7Z"/><path class="cls-2" d="M72.78,40a2.76,2.76,0,0,0-2.16-1h-3a16.56,16.56,0,0,0-32.67,0h-3a2.75,2.75,0,0,0-2.16,1,2.78,2.78,0,0,0-.54,2.33L34.73,67c.74,4.57,4.15,7.85,8.07,7.85H59.68c4,0,7.39-3.27,8.11-7.7l5.53-24.87A2.78,2.78,0,0,0,72.78,40ZM51.27,30.65a11,11,0,0,1,10.66,8.29H40.61A11.05,11.05,0,0,1,51.27,30.65ZM62.36,66.14c-.3,1.86-1.41,3.16-2.8,3.2H42.91c-1.27,0-2.43-1.34-2.76-3.36L35.37,44.47h31.8Z"/></svg>