<svg id="Ebene_1" data-name="Ebene 1" xmlns="http://www.w3.org/2000/svg" xmlns:xlink="http://www.w3.org/1999/xlink" viewBox="0 0 100 100"><defs><style>.cls-1{fill:url(#Unbenannter_Verlauf_7);}</style><linearGradient id="Unbenannter_Verlauf_7" x1="32.98" y1="35.3" x2="67.03" y2="69.35" gradientUnits="userSpaceOnUse"><stop offset="0" stop-color="#00b6d4"/><stop offset="1" stop-color="#28b3a3"/></linearGradient></defs><path class="cls-1" d="M71.5,40a2.74,2.74,0,0,0-2.15-1h-3a16.56,16.56,0,0,0-32.66,0h-3a2.74,2.74,0,0,0-2.15,1A2.72,2.72,0,0,0,28,42.31L33.45,67c.75,4.57,4.16,7.85,8.08,7.85H58.41c4,0,7.39-3.27,8.11-7.7L72,42.31A2.72,2.72,0,0,0,71.5,40ZM50,30.65a11,11,0,0,1,10.66,8.29H39.34A11,11,0,0,1,50,30.65ZM61.09,66.14c-.3,1.86-1.42,3.16-2.8,3.2H41.64c-1.27,0-2.43-1.34-2.76-3.36L34.1,44.47H65.9Z"/></svg>